<?xml version="1.0" encoding="utf-8"?>
<svg xmlns="http://www.w3.org/2000/svg" style="margin: auto; display: block; shape-rendering: auto;" width="289" height="250" preserveAspectRatio="xMidYMid">
<style type="text/css">
  text {
    text-anchor: middle; font-size: 80px; opacity: 0;
  }
</style>
<g style="transform-origin:144.5px 125px;transform:scale(1)">
<g transform="translate(144.5,125)">
  <g transform="translate(0,0)"><g class="path" style="transform: scale(0.91); transform-origin: -76.5px -5.19726px; animation: 1.78571s linear -1.0102s infinite normal forwards running breath-e098eec9-ee6e-434e-a109-ff296ff7d8bc;"><path d="M56.88 0L36.64 0L36.64-3.44L41.21-3.75L41.21-3.75Q42.03-3.83 42.46-4.38L42.46-4.38L42.46-4.38Q42.89-4.92 42.89-5.51L42.89-5.51L42.89-26.17L16.56-26.17L16.56-5.51L16.56-5.51Q16.56-4.92 16.97-4.38L16.97-4.38L16.97-4.38Q17.38-3.83 18.24-3.75L18.24-3.75L22.81-3.44L22.81 0L2.58 0L2.58-3.44L6.72-3.75L6.72-3.75Q7.58-3.83 8.03-4.38L8.03-4.38L8.03-4.38Q8.48-4.92 8.48-5.51L8.48-5.51L8.48-48.16L8.48-48.16Q8.48-48.75 8.03-49.26L8.03-49.26L8.03-49.26Q7.58-49.77 6.72-49.84L6.72-49.84L2.58-50.16L2.58-53.67L22.81-53.67L22.81-50.16L18.24-49.84L18.24-49.84Q17.38-49.77 16.97-49.26L16.97-49.26L16.97-49.26Q16.56-48.75 16.56-48.16L16.56-48.16L16.56-30.16L42.89-30.16L42.89-48.16L42.89-48.16Q42.89-48.75 42.46-49.26L42.46-49.26L42.46-49.26Q42.03-49.77 41.21-49.84L41.21-49.84L36.64-50.16L36.64-53.67L56.88-53.67L56.88-50.16L52.73-49.84L52.73-49.84Q51.88-49.77 51.43-49.26L51.43-49.26L51.43-49.26Q50.98-48.75 50.98-48.16L50.98-48.16L50.98-5.51L50.98-5.51Q50.98-4.92 51.43-4.38L51.43-4.38L51.43-4.38Q51.88-3.83 52.73-3.75L52.73-3.75L56.88-3.44L56.88 0" fill="#76d3fc" stroke="none" stroke-width="none" transform="translate(-106.23001098632812,21.63773851667131)" style="fill: rgb(118, 211, 252);"></path></g><g class="path" style="transform: scale(0.91); transform-origin: -27.165px 2.36274px; animation: 1.78571s linear -0.841837s infinite normal forwards running breath-e098eec9-ee6e-434e-a109-ff296ff7d8bc;"><path d="M95.94-8.87L95.94-3.98L95.94-3.98Q94.26-2.93 92.44-2.03L92.44-2.03L92.44-2.03Q90.63-1.13 88.69-0.47L88.69-0.47L88.69-0.47Q86.76 0.20 84.77 0.59L84.77 0.59L84.77 0.59Q82.77 0.98 80.74 0.98L80.74 0.98L80.74 0.98Q77.11 0.98 73.75-0.25L73.75-0.25L73.75-0.25Q70.39-1.48 67.83-3.95L67.83-3.95L67.83-3.95Q65.27-6.41 63.73-10.14L63.73-10.14L63.73-10.14Q62.19-13.87 62.19-18.87L62.19-18.87L62.19-18.87Q62.19-23.55 63.59-27.36L63.59-27.36L63.59-27.36Q65-31.17 67.50-33.89L67.50-33.89L67.50-33.89Q70-36.60 73.44-38.07L73.44-38.07L73.44-38.07Q76.88-39.53 80.98-39.53L80.98-39.53L80.98-39.53Q84.69-39.53 87.50-38.30L87.50-38.30L87.50-38.30Q90.31-37.07 92.19-34.90L92.19-34.90L92.19-34.90Q94.06-32.73 95-29.71L95-29.71L95-29.71Q95.94-26.68 95.94-23.13L95.94-23.13L95.94-22.07L95.94-22.07Q95.94-21.45 95.86-20.90L95.86-20.90L69.92-20.90L69.92-20.90Q69.92-17.85 70.57-14.80L70.57-14.80L70.57-14.80Q71.21-11.76 72.73-9.34L72.73-9.34L72.73-9.34Q74.26-6.91 76.84-5.41L76.84-5.41L76.84-5.41Q79.41-3.91 83.28-3.91L83.28-3.91L83.28-3.91Q85-3.91 86.68-4.36L86.68-4.36L86.68-4.36Q88.36-4.80 89.98-5.51L89.98-5.51L89.98-5.51Q91.60-6.21 93.09-7.09L93.09-7.09L93.09-7.09Q94.57-7.97 95.94-8.87L95.94-8.87zM87.93-24.49L87.93-26.25L87.93-26.25Q87.93-28.24 87.46-29.94L87.46-29.94L87.46-29.94Q86.99-31.64 86.04-32.89L86.04-32.89L86.04-32.89Q85.08-34.14 83.61-34.86L83.61-34.86L83.61-34.86Q82.15-35.59 80.16-35.59L80.16-35.59L80.16-35.59Q78.16-35.59 76.45-34.82L76.45-34.82L76.45-34.82Q74.73-34.06 73.42-32.62L73.42-32.62L73.42-32.62Q72.11-31.17 71.31-29.12L71.31-29.12L71.31-29.12Q70.51-27.07 70.35-24.49L70.35-24.49L87.93-24.49" fill="#76d3fc" stroke="none" stroke-width="none" transform="translate(-106.23001098632812,21.63773851667131)" style="fill: rgb(118, 211, 252);"></path></g><g class="path" style="transform: scale(0.91); transform-origin: 4.27499px -7.83726px; animation: 1.78571s linear -0.673469s infinite normal forwards running breath-e098eec9-ee6e-434e-a109-ff296ff7d8bc;"><path d="M120.27 0L100.82 0L100.82-3.13L105.08-3.36L105.08-3.36Q105.63-3.36 106.23-3.93L106.23-3.93L106.23-3.93Q106.84-4.49 106.84-5.04L106.84-5.04L106.84-53.20L100.74-53.20L100.74-55.86L110.98-58.95L114.26-58.95L114.26-5.04L114.26-5.04Q114.26-4.49 114.82-3.93L114.82-3.93L114.82-3.93Q115.39-3.36 115.94-3.36L115.94-3.36L120.27-3.13L120.27 0" fill="#76d3fc" stroke="none" stroke-width="none" transform="translate(-106.23001098632812,21.63773851667131)" style="fill: rgb(118, 211, 252);"></path></g><g class="path" style="transform: scale(0.91); transform-origin: 28.025px -7.83726px; animation: 1.78571s linear -0.505102s infinite normal forwards running breath-e098eec9-ee6e-434e-a109-ff296ff7d8bc;"><path d="M144.02 0L124.57 0L124.57-3.13L128.83-3.36L128.83-3.36Q129.38-3.36 129.98-3.93L129.98-3.93L129.98-3.93Q130.59-4.49 130.59-5.04L130.59-5.04L130.59-53.20L124.49-53.20L124.49-55.86L134.73-58.95L138.01-58.95L138.01-5.04L138.01-5.04Q138.01-4.49 138.57-3.93L138.57-3.93L138.57-3.93Q139.14-3.36 139.69-3.36L139.69-3.36L144.02-3.13L144.02 0" fill="#76d3fc" stroke="none" stroke-width="none" transform="translate(-106.23001098632812,21.63773851667131)" style="fill: rgb(118, 211, 252);"></path></g><g class="path" style="transform: scale(0.91); transform-origin: 61.7px 2.36274px; animation: 1.78571s linear -0.336735s infinite normal forwards running breath-e098eec9-ee6e-434e-a109-ff296ff7d8bc;"><path d="M186.95-19.22L186.95-19.22L186.95-19.22Q186.95-14.96 185.61-11.27L185.61-11.27L185.61-11.27Q184.26-7.58 181.78-4.86L181.78-4.86L181.78-4.86Q179.30-2.15 175.76-0.59L175.76-0.59L175.76-0.59Q172.23 0.98 167.85 0.98L167.85 0.98L167.85 0.98Q163.48 0.98 159.96-0.57L159.96-0.57L159.96-0.57Q156.45-2.11 153.98-4.80L153.98-4.80L153.98-4.80Q151.52-7.50 150.21-11.19L150.21-11.19L150.21-11.19Q148.91-14.88 148.91-19.22L148.91-19.22L148.91-19.22Q148.91-23.48 150.23-27.19L150.23-27.19L150.23-27.19Q151.56-30.90 154.06-33.65L154.06-33.65L154.06-33.65Q156.56-36.41 160.10-37.97L160.10-37.97L160.10-37.97Q163.63-39.53 168.09-39.53L168.09-39.53L168.09-39.53Q172.54-39.53 176.05-37.93L176.05-37.93L176.05-37.93Q179.57-36.33 181.99-33.57L181.99-33.57L181.99-33.57Q184.41-30.82 185.68-27.13L185.68-27.13L185.68-27.13Q186.95-23.44 186.95-19.22zM178.63-19.30L178.63-19.30L178.63-19.30Q178.63-22.58 177.99-25.59L177.99-25.59L177.99-25.59Q177.34-28.59 176.02-30.90L176.02-30.90L176.02-30.90Q174.69-33.20 172.70-34.57L172.70-34.57L172.70-34.57Q170.70-35.94 168.01-35.94L168.01-35.94L168.01-35.94Q165.23-35.94 163.20-34.57L163.20-34.57L163.20-34.57Q161.17-33.20 159.86-30.90L159.86-30.90L159.86-30.90Q158.55-28.59 157.93-25.59L157.93-25.59L157.93-25.59Q157.30-22.58 157.30-19.30L157.30-19.30L157.30-19.30Q157.30-16.05 157.95-13.05L157.95-13.05L157.95-13.05Q158.59-10.04 159.92-7.73L159.92-7.73L159.92-7.73Q161.25-5.43 163.24-4.04L163.24-4.04L163.24-4.04Q165.23-2.66 167.93-2.66L167.93-2.66L167.93-2.66Q170.66-2.66 172.70-4.02L172.70-4.02L172.70-4.02Q174.73-5.39 176.04-7.70L176.04-7.70L176.04-7.70Q177.34-10 177.99-13.01L177.99-13.01L177.99-13.01Q178.63-16.02 178.63-19.30" fill="#76d3fc" stroke="none" stroke-width="none" transform="translate(-106.23001098632812,21.63773851667131)" style="fill: rgb(118, 211, 252);"></path></g><g class="path" style="transform: scale(0.91); transform-origin: 102.58px -12.4873px; animation: 1.78571s linear -0.168367s infinite normal forwards running breath-e098eec9-ee6e-434e-a109-ff296ff7d8bc;"><path d="M214.18-43.20L214.18-43.20L214.18-43.20Q214.18-41.37 213.98-39.67L213.98-39.67L213.98-39.67Q213.79-37.97 213.48-35.86L213.48-35.86L210.74-16.02L206.95-16.02L204.41-34.34L204.41-34.34Q204.22-35.70 204.06-36.88L204.06-36.88L204.06-36.88Q203.91-38.05 203.75-39.10L203.75-39.10L203.75-39.10Q203.59-40.16 203.52-41.17L203.52-41.17L203.52-41.17Q203.44-42.19 203.44-43.28L203.44-43.28L203.44-43.28Q203.44-47.93 204.86-50.08L204.86-50.08L204.86-50.08Q206.29-52.23 208.91-52.23L208.91-52.23L208.91-52.23Q210.20-52.23 211.17-51.78L211.17-51.78L211.17-51.78Q212.15-51.33 212.83-50.27L212.83-50.27L212.83-50.27Q213.52-49.22 213.85-47.48L213.85-47.48L213.85-47.48Q214.18-45.74 214.18-43.20" fill="#76d3fc" stroke="none" stroke-width="none" transform="translate(-106.23001098632812,21.63773851667131)" style="fill: rgb(118, 211, 252);"></path></g><g class="path" style="transform: scale(0.91); transform-origin: 102.695px 15.5227px; animation: 1.78571s linear 0s infinite normal forwards running breath-e098eec9-ee6e-434e-a109-ff296ff7d8bc;"><path d="M215.04-6.17L215.04-6.17L215.04-6.17Q215.04-4.88 214.57-3.75L214.57-3.75L214.57-3.75Q214.10-2.62 213.28-1.80L213.28-1.80L213.28-1.80Q212.46-0.98 211.35-0.49L211.35-0.49L211.35-0.49Q210.23 0 208.98 0L208.98 0L208.98 0Q207.70 0 206.56-0.49L206.56-0.49L206.56-0.49Q205.43-0.98 204.61-1.80L204.61-1.80L204.61-1.80Q203.79-2.62 203.30-3.75L203.30-3.75L203.30-3.75Q202.81-4.88 202.81-6.17L202.81-6.17L202.81-6.17Q202.81-7.42 203.30-8.54L203.30-8.54L203.30-8.54Q203.79-9.65 204.61-10.47L204.61-10.47L204.61-10.47Q205.43-11.29 206.56-11.76L206.56-11.76L206.56-11.76Q207.70-12.23 208.98-12.23L208.98-12.23L208.98-12.23Q210.23-12.23 211.35-11.76L211.35-11.76L211.35-11.76Q212.46-11.29 213.28-10.47L213.28-10.47L213.28-10.47Q214.10-9.65 214.57-8.54L214.57-8.54L214.57-8.54Q215.04-7.42 215.04-6.17" fill="#76d3fc" stroke="none" stroke-width="none" transform="translate(-106.23001098632812,21.63773851667131)" style="fill: rgb(118, 211, 252);"></path></g></g>
</g>
</g>
<style id="breath-e098eec9-ee6e-434e-a109-ff296ff7d8bc" data-anikit="">@keyframes breath-e098eec9-ee6e-434e-a109-ff296ff7d8bc
{
  0% {
    animation-timing-function: cubic-bezier(0.9647,0.2413,-0.0705,0.7911);
    transform: scale(0.9099999999999999);
  }
  51% {
    animation-timing-function: cubic-bezier(0.9226,0.2631,-0.0308,0.7628);
    transform: scale(1.02994);
  }
  100% {
    transform: scale(0.9099999999999999);
  }
}</style></svg>